<svg xmlns="http://www.w3.org/2000/svg" x="0px" y="0px" width="100" height="100" viewBox="0 0 256 256">
    <g fill="#ffffff"><path d="M20,10c-3.314,0 -6,2.686 -6,6v32c0,3.314 2.686,6 6,6h24c3.314,0 6,-2.686 6,-6v-18h-14c-3.314,0 -6,-2.686 -6,-6v-14zM34,10.17188v13.82813c0,1.105 0.896,2 2,2h13.82813zM24,35h16c1.104,0 2,0.895 2,2c0,1.105 -0.896,2 -2,2h-16c-1.104,0 -2,-0.895 -2,-2c0,-1.105 0.896,-2 2,-2zM24,43h16c1.104,0 2,0.895 2,2c0,1.105 -0.896,2 -2,2h-16c-1.104,0 -2,-0.895 -2,-2c0,-1.105 0.896,-2 2,-2z"></path></g>
</svg>