<svg xmlns="http://www.w3.org/2000/svg" x="0px" y="0px" width="50" height="50" viewBox="0 0 50 50">
    <g fill="#ffffff"><path d="M43.98828,23.54297c-0.23828,-5.85547 -5.07812,-10.54297 -10.98828,-10.54297c-1.01953,0 -1.99609,0.13281 -2.96484,0.40625c-2.23828,-3.35156 -6.01562,-5.40625 -10.03516,-5.40625c-6.41797,0 -11.67578,5.0625 -11.98437,11.40625c-4.69141,1.28906 -8.01562,5.62109 -8.01562,10.59375c0,6.06641 4.93359,11 11,11h30c4.96484,0 9,-4.03516 9,-9c0,-3.83203 -2.48437,-7.26562 -6.01172,-8.45703zM30.29297,26.70703l-4.29297,-4.29297v11.58594h-2v-11.58594l-4.29297,4.29297l-1.41406,-1.41406l6.70703,-6.70703l6.70703,6.70703z"></path></g>
</svg>